<?xml version="1.0" standalone="no"?><!-- Generator: Gravit.io --><svg xmlns="http://www.w3.org/2000/svg" xmlns:xlink="http://www.w3.org/1999/xlink" style="isolation:isolate" viewBox="0 0 1280 720" width="1280" height="720"><defs><clipPath id="_clipPath_60WSD85BdJyeXLuL5sYKhXd0dhHUkw2e"><rect width="1280" height="720"/></clipPath></defs><g xmlns="http://www.w3.org/2000/svg" id="flat-moon" style="&#10;    transform: translate(295px, 115px);&#10;"><path d=" M 210.535 187.228 C 210.535 155.242 236.504 129.274 268.49 129.274 C 300.476 129.274 326.445 155.242 326.445 187.228 C 326.445 219.214 300.476 245.183 268.49 245.183 C 236.504 245.183 210.535 219.214 210.535 187.228 Z " fill="rgb(0,38,59)"/><path d=" M 255.392 221.083 C 247.122 215.395 240.405 207.612 236.004 198.503 C 235.445 198.584 234.874 198.627 234.293 198.627 C 228.002 198.627 222.894 193.52 222.894 187.228 C 222.894 182.33 225.991 178.149 230.33 176.536 C 230.27 175.471 230.24 174.399 230.24 173.319 C 230.24 158.122 236.102 144.283 245.692 133.949 C 225.024 142.802 210.535 163.336 210.535 187.228 C 210.535 219.214 236.504 245.183 268.49 245.183 C 285.279 245.183 300.41 238.028 310.992 226.599 C 303.997 229.611 296.289 231.274 288.195 231.274 C 282.554 231.274 277.102 230.466 271.948 228.956 C 270.795 232.759 267.259 235.526 263.082 235.526 C 257.963 235.526 253.808 231.371 253.808 226.252 C 253.808 224.337 254.39 222.557 255.392 221.083 Z " fill="rgb(0,19,30)"/><path d=" M 225.656 187.454 C 225.656 182.467 229.705 178.418 234.692 178.418 C 239.679 178.418 243.728 182.467 243.728 187.454 C 243.728 192.441 239.679 196.49 234.692 196.49 C 229.705 196.49 225.656 192.441 225.656 187.454 Z " fill="rgb(0,19,30)"/><path d=" M 263.334 180.164 C 263.334 173.342 268.874 167.802 275.696 167.802 C 282.519 167.802 288.059 173.342 288.059 180.164 C 288.059 186.987 282.519 192.526 275.696 192.526 C 268.874 192.526 263.334 186.987 263.334 180.164 Z " fill="rgb(0,19,30)"/><g id="null"><path d=" M 281.847 139.063 C 282.79 136.603 286.773 135.838 290.737 137.356 C 294.701 138.875 297.154 142.105 296.211 144.565 C 295.269 147.026 291.285 147.791 287.321 146.272 C 283.358 144.754 280.905 141.523 281.847 139.063 Z " fill="rgb(77,103,118)"/><path d=" M 281.406 139.396 C 282.348 136.936 286.332 136.171 290.296 137.69 C 294.26 139.208 296.712 142.439 295.77 144.899 C 294.827 147.359 290.844 148.124 286.88 146.606 C 282.916 145.087 280.463 141.857 281.406 139.396 Z " fill="rgb(0,19,30)"/></g><g id="null"><path d=" M 315.254 201.549 C 318.028 202.971 318.419 207.754 316.127 212.223 C 313.835 216.692 309.722 219.164 306.948 217.742 C 304.175 216.319 303.784 211.536 306.076 207.067 C 308.368 202.599 312.481 200.126 315.254 201.549 Z " fill="rgb(77,103,118)"/><path d=" M 314.918 200.987 C 317.692 202.41 318.083 207.193 315.791 211.662 C 313.499 216.13 309.386 218.603 306.613 217.181 C 303.839 215.758 303.448 210.975 305.74 206.506 C 308.032 202.037 312.145 199.564 314.918 200.987 Z " fill="rgb(0,19,30)"/></g><path d=" M 255.983 226.209 C 255.983 222.326 259.136 219.173 263.018 219.173 C 266.901 219.173 270.054 222.326 270.054 226.209 C 270.054 230.092 266.901 233.244 263.018 233.244 C 259.136 233.244 255.983 230.092 255.983 226.209 Z " fill="rgb(0,19,30)"/><g xmlns="http://www.w3.org/2000/svg" id="flat-moon" style="&#10;    transform: translate(-295px, 115px);&#10;"><path d=" M 210.535 187.228 C 210.535 155.242 236.504 129.274 268.49 129.274 C 300.476 129.274 326.445 155.242 326.445 187.228 C 326.445 219.214 300.476 245.183 268.49 245.183 C 236.504 245.183 210.535 219.214 210.535 187.228 Z " fill="rgb(0,38,59)"/><path d=" M 255.392 221.083 C 247.122 215.395 240.405 207.612 236.004 198.503 C 235.445 198.584 234.874 198.627 234.293 198.627 C 228.002 198.627 222.894 193.52 222.894 187.228 C 222.894 182.33 225.991 178.149 230.33 176.536 C 230.27 175.471 230.24 174.399 230.24 173.319 C 230.24 158.122 236.102 144.283 245.692 133.949 C 225.024 142.802 210.535 163.336 210.535 187.228 C 210.535 219.214 236.504 245.183 268.49 245.183 C 285.279 245.183 300.41 238.028 310.992 226.599 C 303.997 229.611 296.289 231.274 288.195 231.274 C 282.554 231.274 277.102 230.466 271.948 228.956 C 270.795 232.759 267.259 235.526 263.082 235.526 C 257.963 235.526 253.808 231.371 253.808 226.252 C 253.808 224.337 254.39 222.557 255.392 221.083 Z " fill="rgb(0,19,30)"/><path d=" M 225.656 187.454 C 225.656 182.467 229.705 178.418 234.692 178.418 C 239.679 178.418 243.728 182.467 243.728 187.454 C 243.728 192.441 239.679 196.49 234.692 196.49 C 229.705 196.49 225.656 192.441 225.656 187.454 Z " fill="rgb(0,19,30)"/><path d=" M 263.334 180.164 C 263.334 173.342 268.874 167.802 275.696 167.802 C 282.519 167.802 288.059 173.342 288.059 180.164 C 288.059 186.987 282.519 192.526 275.696 192.526 C 268.874 192.526 263.334 186.987 263.334 180.164 Z " fill="rgb(0,19,30)"/><g id="null"><path d=" M 281.847 139.063 C 282.79 136.603 286.773 135.838 290.737 137.356 C 294.701 138.875 297.154 142.105 296.211 144.565 C 295.269 147.026 291.285 147.791 287.321 146.272 C 283.358 144.754 280.905 141.523 281.847 139.063 Z " fill="rgb(77,103,118)"/><path d=" M 281.406 139.396 C 282.348 136.936 286.332 136.171 290.296 137.69 C 294.26 139.208 296.712 142.439 295.77 144.899 C 294.827 147.359 290.844 148.124 286.88 146.606 C 282.916 145.087 280.463 141.857 281.406 139.396 Z " fill="rgb(0,19,30)"/></g><g id="null"><path d=" M 315.254 201.549 C 318.028 202.971 318.419 207.754 316.127 212.223 C 313.835 216.692 309.722 219.164 306.948 217.742 C 304.175 216.319 303.784 211.536 306.076 207.067 C 308.368 202.599 312.481 200.126 315.254 201.549 Z " fill="rgb(77,103,118)"/><path d=" M 314.918 200.987 C 317.692 202.41 318.083 207.193 315.791 211.662 C 313.499 216.13 309.386 218.603 306.613 217.181 C 303.839 215.758 303.448 210.975 305.74 206.506 C 308.032 202.037 312.145 199.564 314.918 200.987 Z " fill="rgb(0,19,30)"/></g><path d=" M 255.983 226.209 C 255.983 222.326 259.136 219.173 263.018 219.173 C 266.901 219.173 270.054 222.326 270.054 226.209 C 270.054 230.092 266.901 233.244 263.018 233.244 C 259.136 233.244 255.983 230.092 255.983 226.209 Z " fill="rgb(0,19,30)"/></g><g xmlns="http://www.w3.org/2000/svg" id="flat-moon" style="&#10;    transform: translate(295px, 115px);&#10;"><path d=" M 210.535 187.228 C 210.535 155.242 236.504 129.274 268.49 129.274 C 300.476 129.274 326.445 155.242 326.445 187.228 C 326.445 219.214 300.476 245.183 268.49 245.183 C 236.504 245.183 210.535 219.214 210.535 187.228 Z " fill="rgb(0,38,59)"/><path d=" M 255.392 221.083 C 247.122 215.395 240.405 207.612 236.004 198.503 C 235.445 198.584 234.874 198.627 234.293 198.627 C 228.002 198.627 222.894 193.52 222.894 187.228 C 222.894 182.33 225.991 178.149 230.33 176.536 C 230.27 175.471 230.24 174.399 230.24 173.319 C 230.24 158.122 236.102 144.283 245.692 133.949 C 225.024 142.802 210.535 163.336 210.535 187.228 C 210.535 219.214 236.504 245.183 268.49 245.183 C 285.279 245.183 300.41 238.028 310.992 226.599 C 303.997 229.611 296.289 231.274 288.195 231.274 C 282.554 231.274 277.102 230.466 271.948 228.956 C 270.795 232.759 267.259 235.526 263.082 235.526 C 257.963 235.526 253.808 231.371 253.808 226.252 C 253.808 224.337 254.39 222.557 255.392 221.083 Z " fill="rgb(0,19,30)"/><path d=" M 225.656 187.454 C 225.656 182.467 229.705 178.418 234.692 178.418 C 239.679 178.418 243.728 182.467 243.728 187.454 C 243.728 192.441 239.679 196.49 234.692 196.49 C 229.705 196.49 225.656 192.441 225.656 187.454 Z " fill="rgb(0,19,30)"/><path d=" M 263.334 180.164 C 263.334 173.342 268.874 167.802 275.696 167.802 C 282.519 167.802 288.059 173.342 288.059 180.164 C 288.059 186.987 282.519 192.526 275.696 192.526 C 268.874 192.526 263.334 186.987 263.334 180.164 Z " fill="rgb(0,19,30)"/><g id="null"><path d=" M 281.847 139.063 C 282.79 136.603 286.773 135.838 290.737 137.356 C 294.701 138.875 297.154 142.105 296.211 144.565 C 295.269 147.026 291.285 147.791 287.321 146.272 C 283.358 144.754 280.905 141.523 281.847 139.063 Z " fill="rgb(77,103,118)"/><path d=" M 281.406 139.396 C 282.348 136.936 286.332 136.171 290.296 137.69 C 294.26 139.208 296.712 142.439 295.77 144.899 C 294.827 147.359 290.844 148.124 286.88 146.606 C 282.916 145.087 280.463 141.857 281.406 139.396 Z " fill="rgb(0,19,30)"/></g><g id="null"><path d=" M 315.254 201.549 C 318.028 202.971 318.419 207.754 316.127 212.223 C 313.835 216.692 309.722 219.164 306.948 217.742 C 304.175 216.319 303.784 211.536 306.076 207.067 C 308.368 202.599 312.481 200.126 315.254 201.549 Z " fill="rgb(77,103,118)"/><path d=" M 314.918 200.987 C 317.692 202.41 318.083 207.193 315.791 211.662 C 313.499 216.13 309.386 218.603 306.613 217.181 C 303.839 215.758 303.448 210.975 305.74 206.506 C 308.032 202.037 312.145 199.564 314.918 200.987 Z " fill="rgb(0,19,30)"/></g><path d=" M 255.983 226.209 C 255.983 222.326 259.136 219.173 263.018 219.173 C 266.901 219.173 270.054 222.326 270.054 226.209 C 270.054 230.092 266.901 233.244 263.018 233.244 C 259.136 233.244 255.983 230.092 255.983 226.209 Z " fill="rgb(0,19,30)"/><g xmlns="http://www.w3.org/2000/svg" id="flat-moon" style="&#10;    transform: translate(295px, -215px);&#10;"><path d=" M 210.535 187.228 C 210.535 155.242 236.504 129.274 268.49 129.274 C 300.476 129.274 326.445 155.242 326.445 187.228 C 326.445 219.214 300.476 245.183 268.49 245.183 C 236.504 245.183 210.535 219.214 210.535 187.228 Z " fill="rgb(0,38,59)"/><path d=" M 255.392 221.083 C 247.122 215.395 240.405 207.612 236.004 198.503 C 235.445 198.584 234.874 198.627 234.293 198.627 C 228.002 198.627 222.894 193.52 222.894 187.228 C 222.894 182.33 225.991 178.149 230.33 176.536 C 230.27 175.471 230.24 174.399 230.24 173.319 C 230.24 158.122 236.102 144.283 245.692 133.949 C 225.024 142.802 210.535 163.336 210.535 187.228 C 210.535 219.214 236.504 245.183 268.49 245.183 C 285.279 245.183 300.41 238.028 310.992 226.599 C 303.997 229.611 296.289 231.274 288.195 231.274 C 282.554 231.274 277.102 230.466 271.948 228.956 C 270.795 232.759 267.259 235.526 263.082 235.526 C 257.963 235.526 253.808 231.371 253.808 226.252 C 253.808 224.337 254.39 222.557 255.392 221.083 Z " fill="rgb(0,19,30)"/><path d=" M 225.656 187.454 C 225.656 182.467 229.705 178.418 234.692 178.418 C 239.679 178.418 243.728 182.467 243.728 187.454 C 243.728 192.441 239.679 196.49 234.692 196.49 C 229.705 196.49 225.656 192.441 225.656 187.454 Z " fill="rgb(0,19,30)"/><path d=" M 263.334 180.164 C 263.334 173.342 268.874 167.802 275.696 167.802 C 282.519 167.802 288.059 173.342 288.059 180.164 C 288.059 186.987 282.519 192.526 275.696 192.526 C 268.874 192.526 263.334 186.987 263.334 180.164 Z " fill="rgb(0,19,30)"/><g id="null"><path d=" M 281.847 139.063 C 282.79 136.603 286.773 135.838 290.737 137.356 C 294.701 138.875 297.154 142.105 296.211 144.565 C 295.269 147.026 291.285 147.791 287.321 146.272 C 283.358 144.754 280.905 141.523 281.847 139.063 Z " fill="rgb(77,103,118)"/><path d=" M 281.406 139.396 C 282.348 136.936 286.332 136.171 290.296 137.69 C 294.26 139.208 296.712 142.439 295.77 144.899 C 294.827 147.359 290.844 148.124 286.88 146.606 C 282.916 145.087 280.463 141.857 281.406 139.396 Z " fill="rgb(0,19,30)"/></g><g id="null"><path d=" M 315.254 201.549 C 318.028 202.971 318.419 207.754 316.127 212.223 C 313.835 216.692 309.722 219.164 306.948 217.742 C 304.175 216.319 303.784 211.536 306.076 207.067 C 308.368 202.599 312.481 200.126 315.254 201.549 Z " fill="rgb(77,103,118)"/><path d=" M 314.918 200.987 C 317.692 202.41 318.083 207.193 315.791 211.662 C 313.499 216.13 309.386 218.603 306.613 217.181 C 303.839 215.758 303.448 210.975 305.74 206.506 C 308.032 202.037 312.145 199.564 314.918 200.987 Z " fill="rgb(0,19,30)"/></g><path d=" M 255.983 226.209 C 255.983 222.326 259.136 219.173 263.018 219.173 C 266.901 219.173 270.054 222.326 270.054 226.209 C 270.054 230.092 266.901 233.244 263.018 233.244 C 259.136 233.244 255.983 230.092 255.983 226.209 Z " fill="rgb(0,19,30)"/></g></g></g></svg>