<?xml version="1.0" standalone="no"?><!-- Generator: Gravit.io --><svg xmlns="http://www.w3.org/2000/svg" xmlns:xlink="http://www.w3.org/1999/xlink" style="isolation:isolate" viewBox="0 0 1280 720" width="1280" height="720"><defs><clipPath id="_clipPath_60WSD85BdJyeXLuL5sYKhXd0dhHUkw2e"><rect width="1280" height="720"/></clipPath></defs><g xmlns="http://www.w3.org/2000/svg" id="Stars1"><defs><filter id="v9hhaPzKjgqUrfrCm8uTrQWYnq9qBOyi" x="-200%" y="-200%" width="400%" height="400%"><feGaussianBlur xmlns="http://www.w3.org/2000/svg" stdDeviation="1.2880827188517086"/></filter></defs><g filter="url(#v9hhaPzKjgqUrfrCm8uTrQWYnq9qBOyi)"><path d=" M 281.586 621.844 L 280.294 614 L 279.002 621.844 L 275.602 619.407 L 278.04 622.806 L 270.196 624.098 L 278.04 625.39 L 275.602 628.789 L 279.002 626.351 L 280.294 634.196 L 281.586 626.351 L 284.985 628.789 L 282.547 625.39 L 290.391 624.098 L 282.547 622.806 L 284.985 619.407 L 281.586 621.844 Z " fill="rgb(235,235,235)"/></g><defs><filter id="PnGG3fmjp0nyoRi3te6g1BCoFECtPeXU" x="-200%" y="-200%" width="400%" height="400%"><feGaussianBlur xmlns="http://www.w3.org/2000/svg" stdDeviation="1.2880827188517086"/></filter></defs><g filter="url(#PnGG3fmjp0nyoRi3te6g1BCoFECtPeXU)"><path d=" M 1123.166 173.312 L 1122.126 167 L 1121.086 173.312 L 1118.351 171.351 L 1120.312 174.086 L 1114 175.126 L 1120.312 176.166 L 1118.351 178.901 L 1121.086 176.939 L 1122.126 183.252 L 1123.166 176.939 L 1125.901 178.901 L 1123.939 176.166 L 1130.252 175.126 L 1123.939 174.086 L 1125.901 171.351 L 1123.166 173.312 Z " fill="rgb(235,235,235)"/></g></g></svg>